<?xml version="1.0" standalone="no"?>
<!DOCTYPE svg PUBLIC "-//W3C//DTD SVG 20010904//EN"
 "http://www.w3.org/TR/2001/REC-SVG-20010904/DTD/svg10.dtd">
<svg version="1.0" xmlns="http://www.w3.org/2000/svg"
 width="1000.000000pt" height="994.000000pt" viewBox="0 0 1000.000000 994.000000"
 preserveAspectRatio="xMidYMid meet">

<g transform="translate(0.000000,994.000000) scale(0.100000,-0.100000)"
fill="#000000" stroke="none">
<path d="M4701 9683 c-138 -3 -189 -7 -200 -17 -9 -8 -184 -43 -401 -80 -307
-54 -389 -71 -406 -87 -25 -24 -547 -251 -630 -274 -33 -10 -72 -29 -89 -45
-16 -16 -195 -110 -397 -209 -305 -149 -368 -183 -368 -200 0 -13 -102 -123
-296 -318 -376 -379 -908 -976 -933 -1049 -10 -27 -81 -192 -159 -367 -80
-178 -142 -330 -142 -347 0 -16 -51 -213 -114 -437 -62 -225 -117 -421 -120
-438 -5 -25 -48 -769 -48 -845 -1 -115 46 -836 57 -880 7 -30 61 -225 119
-433 58 -208 106 -392 106 -407 0 -16 64 -172 142 -347 78 -175 149 -340 158
-366 26 -73 560 -674 934 -1050 193 -194 296 -305 296 -318 0 -17 64 -52 368
-200 202 -99 381 -193 397 -209 17 -16 56 -35 89 -45 83 -23 605 -250 630
-274 17 -16 99 -33 406 -87 212 -36 392 -72 400 -79 11 -10 110 -15 396 -20
338 -7 383 -6 390 8 8 13 49 16 254 22 l245 7 135 48 c74 26 153 53 175 60 22
7 45 17 51 21 6 5 130 27 275 50 145 22 271 46 279 53 8 7 101 61 205 121 105
59 204 119 222 132 31 23 386 157 451 171 27 6 71 48 227 217 l193 209 183 86
c150 71 184 91 189 111 4 13 55 90 113 171 74 103 128 167 181 213 42 37 76
70 76 74 0 4 97 151 216 327 l217 319 179 370 c99 204 189 377 199 385 26 22
175 689 161 728 -6 18 1 161 21 419 l29 392 -29 393 c-19 253 -26 404 -20 423
12 43 -136 703 -163 725 -10 8 -99 182 -198 385 l-179 370 -217 319 c-119 176
-216 323 -216 327 0 4 -34 37 -76 74 -53 46 -107 110 -181 213 -58 81 -109
158 -113 172 -5 20 -38 39 -189 110 l-183 86 -193 209 c-156 169 -200 211
-227 217 -65 14 -420 148 -451 171 -18 13 -117 73 -222 132 -104 60 -197 114
-205 121 -8 7 -134 31 -279 53 -145 23 -269 45 -275 50 -6 4 -29 14 -51 21
-22 7 -101 34 -175 60 l-135 48 -245 7 c-194 6 -247 10 -253 21 -8 14 -58 15
-586 7z m339 -84 c12 -1 -392 -108 -411 -109 -5 0 -56 85 -68 114 -3 7 371 3
479 -5z m453 4 c-7 -2 -19 -2 -25 0 -7 3 -2 5 12 5 14 0 19 -2 13 -5z m377
-39 c106 -38 108 -39 -167 2 -106 16 -188 31 -184 34 5 3 65 4 132 2 112 -3
134 -7 219 -38z m-486 -64 c57 -52 102 -96 101 -98 -2 -2 -160 13 -351 34
-191 21 -341 40 -333 43 48 16 456 119 467 118 7 -1 59 -45 116 -97z m-848 44
c15 -25 23 -49 18 -53 -10 -9 -452 -47 -459 -40 -2 3 89 34 203 71 114 36 208
66 209 67 1 0 14 -20 29 -45z m1146 -25 c125 -18 224 -36 220 -40 -4 -4 -75
-25 -159 -47 -177 -47 -161 -50 -278 62 -65 63 -68 67 -40 63 17 -3 132 -20
257 -38z m-1602 -15 c-74 -24 -175 -55 -225 -68 -78 -21 -91 -22 -98 -9 -5 8
-7 17 -4 19 2 3 65 20 139 39 303 76 389 85 188 19z m2160 -169 c57 -66 110
-128 118 -137 13 -15 4 -15 -69 6 -46 13 -195 54 -331 92 -137 37 -245 71
-240 74 12 11 325 90 354 90 15 0 30 5 34 11 4 8 10 7 19 -3 6 -7 58 -67 115
-133z m260 71 l155 -24 127 -73 c70 -41 126 -75 125 -76 -2 -1 -144 45 -317
102 -173 58 -299 103 -280 100 19 -3 105 -16 190 -29z m-2793 8 c3 -9 0 -20
-7 -24 -18 -11 -221 -62 -227 -57 -4 5 197 95 215 96 7 1 15 -6 19 -15z m773
7 c0 -5 -17 -16 -37 -24 -21 -9 -140 -65 -266 -126 -125 -61 -229 -111 -230
-111 -9 0 -139 201 -134 206 5 5 510 54 650 63 9 0 17 -3 17 -8z m571 -26
c178 -19 327 -35 333 -35 6 0 4 -5 -4 -9 -20 -12 -480 -191 -490 -191 -7 0
-183 222 -204 258 -10 17 2 17 365 -23z m-333 -105 l102 -130 -376 0 -376 0
148 73 c82 40 201 98 264 129 63 31 120 57 126 57 6 1 57 -57 112 -129z m1902
-18 l325 -109 -135 -7 c-74 -3 -180 -9 -235 -12 l-100 -6 -109 127 c-60 70
-100 125 -90 121 10 -3 165 -55 344 -114z m-2790 -34 c39 -57 67 -104 63 -105
-22 -7 -706 -133 -708 -131 -4 5 549 336 562 337 6 1 44 -45 83 -101z m1844
-69 c58 -95 105 -173 104 -175 -6 -5 -778 140 -778 147 0 12 496 198 531 198
36 1 36 1 143 -170z m366 52 c216 -60 347 -100 335 -104 -81 -24 -496 -127
-512 -127 -15 0 -45 40 -121 163 -56 90 -102 167 -102 171 0 5 10 5 23 2 12
-3 182 -50 377 -105z m-2471 75 c-2 -2 -113 -69 -246 -150 l-243 -146 -35 69
-34 69 62 26 c69 29 513 147 496 132z m3548 -208 c11 -18 65 -106 121 -196 56
-89 94 -158 84 -153 -9 5 -37 18 -62 29 -25 11 -179 86 -344 166 -164 80 -303
147 -310 149 -29 11 13 15 194 22 107 4 196 8 197 9 2 1 25 3 52 5 45 2 50 0
68 -31z m-2328 18 c-4 -4 -534 -356 -555 -369 -7 -4 -51 58 -115 161 -56 92
-109 177 -117 190 l-14 22 403 0 c221 0 400 -2 398 -4z m556 -86 c209 -38 386
-71 394 -72 17 -3 -512 -320 -537 -322 -14 -1 -89 122 -244 402 -38 70 -39 73
-16 67 12 -3 194 -37 403 -75z m-2334 9 c25 -51 28 -64 17 -75 -7 -7 -94 -45
-193 -84 -239 -95 -310 -122 -302 -114 18 19 433 333 439 334 4 0 22 -28 39
-61z m1048 -129 l110 -175 -27 -7 c-31 -8 -773 -70 -778 -65 -7 6 571 434 578
428 5 -4 57 -85 117 -181z m938 -42 c89 -158 127 -234 118 -236 -12 -3 -669
68 -783 84 l-43 6 283 189 c156 104 285 189 289 189 3 0 64 -105 136 -232z
m1557 16 c53 -114 96 -208 94 -209 -3 -4 -708 272 -715 279 -6 5 3 8 282 81
110 29 209 53 221 54 17 1 36 -33 118 -205z m-2744 182 c-30 -27 -540 -406
-548 -406 -9 0 -148 277 -142 283 4 3 460 92 700 136 2 1 -2 -5 -10 -13z
m3291 -267 l236 -114 -106 -5 c-58 -3 -200 -5 -314 -5 l-209 0 -93 195 c-52
107 -94 198 -95 202 0 7 75 -29 581 -273z m401 56 l266 -172 -96 -6 c-178 -12
-216 -10 -239 16 -29 33 -225 349 -210 341 6 -4 132 -85 279 -179z m-32 129
l125 -45 80 -86 c44 -47 84 -92 88 -99 7 -12 -83 45 -428 269 -16 10 -21 16
-10 12 11 -4 76 -27 145 -51z m-4700 32 c0 -9 -424 -329 -441 -333 -19 -5 -59
45 -59 74 0 14 56 46 248 140 282 138 252 124 252 119z m3153 -343 c59 -141
106 -257 105 -258 -7 -5 -748 191 -745 197 2 7 517 317 527 317 3 0 53 -115
113 -256z m-2778 98 c38 -77 67 -142 65 -144 -3 -2 -149 -47 -325 -102 -176
-54 -327 -101 -334 -104 -8 -2 64 72 160 165 271 265 348 336 356 331 5 -3 39
-68 78 -146z m3114 -1 c204 -80 371 -147 371 -150 0 -3 -122 -51 -270 -106
-238 -90 -271 -100 -279 -85 -5 9 -53 120 -106 246 -53 127 -100 234 -103 239
-2 5 0 7 6 5 5 -2 177 -69 381 -149z m-3573 -136 c-121 -117 -222 -214 -225
-214 -12 0 -112 192 -108 205 3 7 115 56 249 109 309 121 292 115 298 115 3 0
-94 -97 -214 -215z m-433 43 c15 -23 12 -26 -192 -187 -162 -128 -196 -151
-158 -109 58 65 319 318 328 319 4 0 14 -10 22 -23z m2436 -52 c223 -25 406
-46 407 -48 5 -5 -579 -452 -594 -455 -13 -2 -45 58 -142 267 -68 149 -126
275 -128 280 -2 7 7 9 25 6 15 -3 210 -26 432 -50z m-847 -212 c-153 -142
-288 -266 -299 -277 l-22 -18 -116 237 c-63 131 -113 240 -110 243 5 6 705 69
783 71 l42 1 -278 -257z m467 -28 c68 -146 121 -268 119 -270 -3 -3 -191 -4
-418 -3 l-414 3 288 268 c159 147 292 267 295 267 3 0 62 -120 130 -265z
m3152 30 c26 -115 50 -225 54 -243 6 -32 -4 -26 -351 205 l-357 238 134 5 c74
3 210 5 304 5 l169 0 47 -210z m433 186 c34 -24 51 -53 128 -216 48 -104 87
-189 86 -191 -2 -1 -135 93 -296 209 l-294 212 79 6 c43 3 119 6 168 7 84 1
93 -1 129 -27z m-5525 -126 c39 -70 48 -92 38 -101 -15 -15 -543 -344 -551
-344 -4 0 274 360 402 518 41 52 39 53 111 -73z m4345 98 c16 -57 126 -538
124 -545 -3 -8 -678 342 -678 352 0 4 525 207 542 209 4 1 9 -7 12 -16z m493
-283 c161 -107 290 -196 288 -198 -2 -2 -131 -30 -287 -62 -218 -45 -286 -56
-295 -47 -10 11 -143 552 -143 584 0 14 35 -8 437 -277z m620 40 c156 -112
281 -206 278 -209 -8 -7 -13 -8 -205 -15 -96 -3 -202 -9 -235 -12 -33 -2 -65
-1 -72 3 -10 7 -113 439 -113 474 0 6 15 0 33 -13 17 -13 159 -116 314 -228z
m-4363 -219 c-5 -5 -728 -150 -732 -146 -2 2 113 139 254 306 l258 302 111
-229 c62 -126 110 -231 109 -233z m2164 354 c210 -54 382 -101 382 -104 -1 -5
-389 -247 -559 -349 l-38 -22 -33 92 c-158 454 -170 490 -152 486 9 -3 189
-49 400 -103z m-2475 83 c-13 -22 -475 -563 -483 -566 -11 -4 -172 360 -163
368 6 6 612 200 651 209 2 1 0 -5 -5 -11z m2111 -282 c53 -153 94 -281 92
-284 -4 -4 -653 85 -764 105 l-32 5 92 73 c382 300 504 392 509 387 3 -4 50
-133 103 -286z m-3156 172 c-19 -24 -108 -137 -197 -251 -90 -115 -165 -207
-166 -205 -14 14 -74 132 -70 137 20 20 452 360 459 360 4 1 -7 -18 -26 -41z
m6230 -228 c137 -118 249 -216 247 -218 -7 -8 -342 102 -364 120 -15 11 -57
87 -102 184 -62 131 -73 161 -54 147 13 -10 136 -115 273 -233z m21 83 c35
-48 56 -81 45 -72 -49 40 -241 204 -259 221 -12 12 12 4 65 -21 82 -38 87 -43
149 -128z m-2214 -258 c36 -164 64 -302 63 -306 -2 -3 -77 17 -168 46 -91 29
-253 81 -360 115 -107 34 -198 65 -202 69 -4 3 128 90 295 193 166 103 302
186 304 185 1 -2 31 -137 68 -302z m344 111 c188 -99 341 -182 341 -186 0 -6
-544 -234 -557 -232 -4 0 -36 124 -70 274 -78 347 -74 330 -64 326 5 -2 162
-84 350 -182z m-3951 -12 c46 -102 82 -187 80 -188 -3 -3 -248 -82 -435 -141
l-102 -33 182 274 c100 150 184 274 187 274 3 0 42 -84 88 -186z m-355 -119
c-134 -202 -183 -267 -202 -272 -21 -5 -35 6 -107 83 -46 49 -82 92 -81 96 2
6 556 357 565 358 1 0 -78 -119 -175 -265z m-516 -1 l38 -75 -31 -27 c-17 -15
-114 -101 -214 -191 -100 -90 -177 -155 -171 -143 6 12 70 113 142 224 73 112
134 210 138 218 9 22 45 69 53 70 3 0 23 -34 45 -76z m6530 -204 c24 -140 42
-260 40 -267 -2 -12 -556 474 -560 492 -2 9 375 35 453 31 24 -1 25 -4 67
-256z m-3793 228 c-45 -51 -526 -553 -533 -556 -5 -2 -180 311 -318 571 -2 4
193 7 433 7 l437 0 -19 -22z m-965 -5 c-78 -98 -492 -593 -494 -591 -7 7 -245
452 -245 457 0 7 689 148 729 150 21 1 22 -1 10 -16z m1891 -105 c12 -4 -531
-498 -548 -498 -5 0 -209 476 -258 605 -3 8 124 -7 395 -46 219 -31 405 -59
411 -61z m3410 -490 c0 -8 -40 -7 -317 8 -59 3 -106 11 -111 17 -7 10 -103
554 -102 580 0 11 530 -593 530 -605z m-1148 322 c20 -151 37 -280 38 -287 0
-12 -639 439 -643 453 -3 11 488 112 533 110 l34 -1 38 -275z m-3932 -11 c82
-151 147 -275 145 -277 -2 -2 -160 -14 -352 -27 -461 -31 -453 -31 -451 -23 6
16 501 608 505 604 3 -2 71 -127 153 -277z m940 -29 c67 -162 124 -299 127
-303 4 -7 -73 -5 -297 8 -41 2 -167 7 -280 11 -113 4 -211 10 -218 13 -8 5 82
106 260 293 150 157 276 283 280 280 3 -4 61 -140 128 -302z m3603 -258 c-365
-36 -509 -49 -512 -46 -4 4 -80 555 -81 587 0 11 114 -84 312 -260 295 -263
310 -278 281 -281z m302 498 c94 -28 173 -55 177 -59 7 -6 50 -352 45 -358 -3
-2 -384 429 -406 460 -13 18 -13 20 0 15 8 -3 91 -29 184 -58z m-1583 -340
c21 -162 36 -296 33 -298 -5 -5 -644 350 -645 358 0 7 553 238 565 235 5 -1
27 -134 47 -295z m-1089 169 c335 -106 356 -114 340 -129 -26 -24 -513 -391
-513 -386 0 2 -49 142 -110 311 -60 170 -110 313 -110 318 0 12 -29 20 393
-114z m-3998 5 c49 -52 84 -99 79 -103 -47 -42 -423 -351 -427 -351 -7 0 247
549 254 550 4 0 46 -43 94 -96z m753 73 c-7 -13 -92 -150 -188 -305 l-175
-281 -19 36 c-27 53 -165 359 -168 374 -2 8 95 45 277 105 154 50 281 92 283
93 1 1 -3 -9 -10 -22z m2830 -59 c128 -356 184 -519 179 -524 -5 -6 -681 90
-741 105 -28 7 -21 14 245 253 151 136 277 247 281 247 3 1 20 -36 36 -81z
m1924 -203 c147 -104 265 -191 264 -193 -9 -9 -581 -120 -587 -114 -6 6 -79
546 -79 581 0 13 1 12 402 -274z m-4551 15 c108 -201 114 -215 95 -222 -32
-11 -576 -110 -586 -106 -5 2 59 111 141 243 82 132 164 262 180 289 29 46 32
48 42 30 6 -10 64 -116 128 -234z m-1168 143 c-130 -285 -223 -478 -230 -480
-12 -4 -198 111 -198 123 0 8 443 413 452 414 1 0 -10 -26 -24 -57z m-289 -20
c-21 -32 -71 -111 -113 -175 -64 -101 -79 -118 -100 -118 -63 1 -57 13 94 184
81 91 149 166 151 166 3 0 -12 -26 -32 -57z m7590 -190 c87 -128 153 -233 148
-233 -5 0 -25 6 -43 14 -19 7 -77 30 -130 50 l-96 36 -11 53 c-7 28 -17 97
-22 152 -6 55 -13 118 -16 140 -4 26 -3 36 4 30 5 -5 80 -115 166 -242z
m-6844 -83 c49 -107 90 -200 90 -206 0 -11 -429 -129 -437 -120 -5 4 158 369
214 479 13 27 28 47 34 45 5 -2 50 -91 99 -198z m4184 -97 c15 -148 30 -276
32 -285 3 -10 0 -18 -7 -18 -20 0 -569 173 -569 179 1 6 501 388 511 390 3 1
18 -119 33 -266z m395 51 c156 -87 277 -160 270 -163 -8 -2 -140 -46 -293 -98
-153 -51 -281 -91 -285 -88 -5 6 -59 482 -61 533 l0 24 43 -25 c23 -13 170
-95 326 -183z m-4890 -65 c-56 -123 -104 -226 -105 -228 -2 -2 -49 22 -105 54
-93 53 -100 59 -85 74 29 29 391 328 394 325 2 -1 -43 -103 -99 -225z m2019
52 c-8 -25 -542 -661 -549 -654 -13 14 -259 597 -254 602 3 2 182 17 398 31
215 15 396 28 400 29 5 0 7 -3 5 -8z m4468 -323 c-4 -183 -9 -334 -10 -335 -1
-2 -121 135 -265 303 -145 168 -261 307 -259 308 1 2 120 14 263 28 143 14
264 26 269 27 5 0 6 -137 2 -331z m-7159 314 c9 -5 -23 -64 -105 -194 -65
-103 -121 -191 -126 -195 -7 -8 17 50 115 274 48 110 57 123 79 123 14 0 30
-4 37 -8z m3073 -17 c332 -13 390 -16 455 -21 38 -3 71 -6 72 -8 2 -2 -438
-590 -456 -608 -5 -6 -164 277 -324 580 l-39 73 84 -5 c45 -3 139 -8 208 -11z
m4455 0 c71 -3 131 -8 134 -10 4 -5 70 -568 66 -573 -3 -3 -475 586 -475 593
0 3 33 3 73 1 39 -3 130 -8 202 -11z m-4617 -332 c94 -174 171 -318 169 -319
-2 -3 -262 -10 -651 -20 l-249 -6 69 84 c378 458 478 578 484 578 3 0 84 -143
178 -317z m-2745 243 c53 -32 97 -63 97 -68 0 -10 -329 -458 -336 -458 -3 0
-3 3 -1 8 2 4 33 137 67 295 35 158 66 286 69 285 3 -2 50 -29 104 -62z m6332
-265 c-22 -181 -43 -332 -46 -336 -4 -3 -118 119 -254 272 -192 216 -243 279
-229 282 11 2 134 27 274 56 140 29 264 54 275 54 20 1 20 -4 -20 -328z m989
-13 c130 -164 236 -300 236 -303 0 -3 -118 -5 -262 -5 l-261 0 6 228 c4 125 7
270 7 322 0 93 0 94 19 75 10 -11 125 -154 255 -317z m-5721 310 c-9 -16 -234
-338 -361 -517 l-95 -135 -78 274 c-43 151 -77 275 -76 276 3 4 578 111 600
113 12 1 16 -3 10 -11z m2062 -341 c86 -186 155 -341 151 -344 -3 -3 -182 11
-396 32 -313 31 -390 41 -385 52 11 32 459 613 465 606 4 -4 78 -160 165 -346z
m283 298 c207 -31 380 -57 384 -58 4 -1 -46 -69 -110 -152 -65 -82 -168 -214
-229 -292 l-111 -142 -32 67 c-168 357 -290 620 -290 625 0 9 -33 13 388 -48z
m3774 14 c62 -23 117 -45 122 -49 8 -8 128 -501 123 -506 -2 -3 -358 571 -365
588 -5 12 -2 11 120 -33z m-5914 -276 c73 -168 129 -309 126 -312 -7 -8 -745
-68 -742 -61 8 17 474 679 479 680 3 0 65 -138 137 -307z m4882 -8 c144 -169
260 -308 258 -310 -2 -3 -139 -19 -304 -37 -214 -24 -300 -30 -302 -22 -2 6
15 158 38 338 22 179 40 328 40 331 0 3 2 5 4 5 3 0 122 -137 266 -305z m1076
-45 c103 -168 196 -319 207 -337 l19 -32 -54 15 c-161 48 -300 92 -305 98 -4
3 -19 118 -34 254 -16 136 -31 265 -34 287 -4 25 -3 36 3 30 5 -5 94 -147 198
-315z m-8016 -26 c-33 -154 -65 -283 -70 -288 -9 -9 -164 45 -183 64 -5 4 63
120 150 258 87 138 159 249 161 247 2 -1 -24 -128 -58 -281z m5967 259 c-3
-10 -33 -153 -68 -318 -34 -165 -63 -302 -65 -304 -5 -5 -454 429 -454 439 0
8 552 198 578 199 8 1 11 -6 9 -16z m-5388 -92 c24 -15 44 -30 44 -34 0 -9
-336 -477 -340 -474 0 1 26 138 59 305 l61 302 66 -37 c36 -20 86 -48 110 -62z
m375 -237 c-108 -179 -197 -324 -199 -322 -2 2 -17 111 -35 242 -22 162 -30
248 -24 264 8 23 28 30 224 82 118 32 218 58 222 59 4 1 -81 -146 -188 -325z
m4036 230 c151 -47 279 -89 284 -94 7 -7 -251 -440 -263 -440 -3 0 -30 46 -58
103 -29 56 -102 198 -163 315 -77 148 -105 212 -93 208 10 -3 142 -44 293 -92z
m-196 -233 c86 -166 156 -306 154 -310 -4 -8 -757 51 -761 60 -4 11 437 569
444 562 4 -5 77 -145 163 -312z m1472 42 c136 -152 242 -279 235 -281 -28 -9
-621 -98 -621 -93 0 10 135 651 137 651 1 0 113 -125 249 -277z m-4987 -6 c40
-142 71 -260 69 -262 -4 -4 -509 -105 -525 -105 -6 0 75 144 180 320 105 176
194 316 198 312 3 -4 38 -123 78 -265z m-1006 -93 c-31 -153 -57 -280 -58
-282 -1 -1 -54 21 -118 49 -104 46 -115 54 -104 69 85 119 331 449 334 447 1
-2 -23 -129 -54 -283z m8177 -248 c0 -7 -129 0 -137 8 -3 2 -110 455 -117 496
-3 14 53 -92 124 -235 71 -143 129 -264 130 -269z m-7775 192 l31 -233 -103
-3 c-57 -1 -150 -1 -207 0 l-105 3 171 237 c95 131 174 235 177 233 2 -3 18
-110 36 -237z m5125 -226 c0 -4 -733 8 -737 12 -2 1 59 102 133 224 l136 221
234 -226 c129 -124 234 -228 234 -231z m-2632 126 c-363 -566 -501 -778 -503
-776 -12 16 -395 771 -392 774 2 2 156 7 343 10 186 4 340 8 342 9 2 2 53 3
114 4 l111 2 -15 -23z m-3275 -58 c5 -4 -27 -81 -70 -171 -117 -248 -204 -417
-199 -389 2 14 25 156 51 315 26 160 48 295 50 302 3 8 28 3 82 -19 43 -17 82
-34 86 -38z m2256 -8 c-160 -280 -415 -700 -420 -694 -12 12 -298 687 -293
691 5 5 737 69 743 65 2 -2 -12 -30 -30 -62z m1558 30 c205 -21 375 -41 378
-44 6 -6 -439 -673 -449 -673 -5 0 -231 465 -331 683 l-34 72 32 0 c18 -1 199
-18 404 -38z m3458 -361 c-41 -206 -76 -375 -77 -377 -2 -1 -108 155 -236 348
-129 192 -232 351 -230 353 1 2 140 18 308 37 198 22 306 30 308 23 1 -5 -31
-178 -73 -384z m660 367 c-3 -18 -21 -177 -40 -352 -19 -176 -36 -321 -38
-322 -2 -3 -307 489 -430 693 -7 11 39 13 253 13 l261 0 -6 -32z m367 -64 l56
-16 4 -72 c2 -39 5 -145 6 -236 1 -91 5 -199 7 -240 l6 -75 -180 355 c-99 195
-180 358 -180 362 -1 3 50 -9 112 -28 61 -19 138 -41 169 -50z m-4790 -297
c97 -204 180 -380 183 -389 7 -17 -18 -18 -430 -18 -240 0 -435 4 -433 8 7 19
493 772 498 772 3 0 85 -168 182 -373z m-1066 146 c58 -115 145 -282 191 -371
46 -90 83 -166 80 -168 -2 -2 -188 -3 -413 -2 l-410 3 220 373 c121 204 221
372 223 372 1 0 50 -93 109 -207z m5178 -182 c119 -195 215 -355 214 -357 -4
-3 -193 -13 -405 -20 -173 -5 -183 -5 -183 13 0 40 144 733 151 726 4 -4 104
-167 223 -362z m725 -363 c1 -11 -437 -10 -443 0 -3 5 13 168 35 363 21 195
39 359 39 364 1 10 368 -714 369 -727z m-7011 465 c-73 -142 -160 -311 -194
-376 l-61 -118 -107 312 c-58 172 -103 316 -99 320 9 8 533 116 571 118 20 1
9 -24 -110 -256z m-1137 196 l117 -51 -98 -176 c-53 -98 -121 -221 -150 -274
-29 -54 -54 -97 -56 -95 -1 1 53 630 55 645 2 7 26 -2 132 -49z m6429 46 c0
-15 -174 -701 -179 -707 -3 -3 -104 133 -224 304 -120 170 -217 311 -215 313
4 3 565 92 596 94 12 0 22 -1 22 -4z m-1556 -76 c5 -6 -392 -633 -402 -637 -7
-2 -382 684 -382 699 0 5 779 -57 784 -62z m2062 -616 c8 -13 13 -23 12 -24
-13 -4 -644 -37 -647 -34 -3 3 121 515 170 699 l10 38 220 -328 c121 -181 226
-339 235 -351z m-5483 315 l144 -337 -61 -5 c-110 -10 -591 -34 -595 -29 -5 3
67 146 272 541 49 95 91 172 92 170 2 -2 69 -155 148 -340z m2728 83 c63 -119
145 -272 182 -340 l66 -123 -117 6 c-64 3 -209 8 -322 11 -195 5 -402 15 -407
19 -1 1 100 156 225 344 217 326 228 340 242 320 8 -12 67 -118 131 -237z
m4180 223 c21 -4 28 -12 33 -37 11 -65 57 -479 54 -483 -2 -2 -46 103 -98 234
-51 130 -99 252 -107 271 l-14 33 53 -7 c29 -3 65 -8 79 -11z m-2633 -29 c3
-3 -310 -624 -323 -642 -2 -4 -445 646 -445 653 0 6 762 -5 768 -11z m-5128
-12 c0 -11 -325 -602 -329 -598 -4 5 -80 551 -81 583 l0 22 205 0 c113 0 205
-3 205 -7z m-820 -326 c-15 -175 -30 -320 -32 -322 -3 -3 -229 33 -233 37 -3
4 288 609 291 605 1 -1 -11 -145 -26 -320z m5358 -7 l209 -305 -208 -3 c-115
-1 -303 -1 -417 0 l-208 3 148 235 c248 394 248 394 258 384 6 -6 104 -147
218 -314z m856 2 c114 -162 206 -295 204 -297 -7 -7 -738 -17 -738 -10 0 4 24
53 54 109 30 55 100 193 156 305 56 112 105 200 109 195 5 -5 102 -141 215
-302z m-5809 -24 c21 -158 36 -290 33 -293 -3 -3 -96 -4 -206 -3 l-202 3 163
297 c89 163 165 293 168 290 3 -4 23 -136 44 -294z m591 -111 c31 -93 54 -170
53 -172 -8 -7 -519 -17 -519 -10 0 4 73 140 162 302 l161 295 43 -123 c24 -68
69 -200 100 -292z m7552 141 c68 -174 99 -264 92 -268 -11 -7 -181 -22 -187
-17 -5 5 -18 547 -13 547 3 0 51 -118 108 -262z m-8845 -98 c-27 -167 -38
-199 -64 -173 -5 5 10 75 39 180 26 94 48 170 50 168 2 -2 -9 -81 -25 -175z
m9042 -14 c19 -88 35 -168 35 -178 0 -17 -25 -36 -35 -27 -4 5 -45 338 -44
364 1 30 5 15 44 -159z m-6005 -225 c-5 -11 -51 -86 -100 -168 -50 -81 -150
-246 -223 -365 -72 -119 -132 -216 -133 -215 -1 1 -75 142 -164 312 -89 171
-180 343 -201 383 l-40 72 436 0 c427 0 435 0 425 -19z m5140 12 c1 -23 -215
-721 -221 -715 -16 17 -380 694 -376 698 2 2 107 7 233 11 126 3 230 7 232 8
8 6 132 5 132 -2z m796 -110 c-4 -65 -9 -149 -11 -188 -2 -38 -7 -133 -11
-210 -3 -77 -7 -141 -8 -142 -3 -4 -194 631 -191 635 2 2 127 15 208 21 18 1
19 -6 13 -116z m-9010 76 c-3 -17 -7 -50 -7 -73 l-1 -41 -13 50 c-20 76 -19
95 6 95 19 0 21 -4 15 -31z m2142 21 c-10 -29 -374 -770 -378 -770 -7 0 -289
734 -284 739 2 2 144 12 316 21 172 10 321 18 331 19 10 0 17 -3 15 -9z m1899
-3 c-6 -16 -437 -730 -446 -740 -7 -7 -421 730 -421 748 0 3 196 5 436 5 345
0 435 -3 431 -13z m3483 -14 c-10 -32 -220 -713 -224 -727 -3 -11 5 -23 -241
373 -113 183 -204 335 -202 338 3 2 140 12 305 21 166 9 317 18 336 20 34 3
35 2 26 -25z m1200 11 c0 -26 -120 -677 -128 -696 -5 -11 -55 100 -158 348
l-152 364 219 0 c195 0 219 -2 219 -16z m-8530 -14 c47 -7 87 -14 88 -16 6 -4
-191 -624 -198 -624 -5 0 -64 319 -63 344 1 24 24 253 29 285 5 30 8 33 32 28
15 -3 65 -11 112 -17z m4474 0 c164 -5 300 -11 302 -12 3 -4 -430 -727 -436
-728 -4 0 -379 724 -388 751 -3 6 37 8 110 4 62 -3 248 -10 412 -15z m-1332
-378 l207 -377 -437 -5 c-240 -3 -438 -2 -440 2 -4 7 450 757 458 757 3 0 98
-169 212 -377z m864 171 c58 -115 147 -286 195 -380 l89 -173 -426 0 -426 0
21 33 c11 17 114 188 228 379 115 191 209 348 210 348 1 0 50 -93 109 -207z
m2555 165 c-29 -67 -276 -600 -298 -643 l-20 -38 -84 138 c-46 76 -143 236
-215 354 l-132 216 202 5 c110 3 283 6 383 8 l183 3 -19 -43z m-5371 26 c0 -9
-313 -705 -316 -702 -1 2 -50 154 -109 338 -59 184 -110 340 -112 347 -4 9 28
13 134 15 76 2 198 4 271 6 72 2 132 0 132 -4z m4530 0 c0 -9 -424 -714 -430
-714 -6 0 -420 705 -420 714 0 3 191 6 425 6 234 0 425 -3 425 -6z m3194 -16
c3 -13 14 -162 26 -333 11 -170 23 -327 26 -347 l6 -38 -72 0 -72 0 6 73 c3
39 10 173 16 297 15 346 18 370 41 370 11 0 20 -9 23 -22z m-8336 3 c-41 -111
-294 -689 -298 -684 -4 5 -28 132 -55 283 -26 151 -53 305 -60 343 l-13 67
215 0 c122 0 213 -4 211 -9z m1610 -358 c132 -250 189 -369 181 -374 -19 -11
-739 -10 -739 1 0 6 69 152 154 324 84 173 164 337 177 365 12 28 25 51 29 51
4 0 93 -165 198 -367z m5386 10 c102 -188 189 -349 192 -357 5 -14 -28 -16
-306 -16 -246 0 -311 3 -307 13 2 6 53 170 113 364 60 194 112 349 115 345 3
-4 90 -161 193 -349z m636 -3 c80 -193 147 -355 148 -360 2 -6 -95 -10 -258
-10 -206 0 -261 3 -258 13 3 6 52 168 109 359 57 191 106 348 109 348 3 0 70
-158 150 -350z m-6832 -21 c73 -191 132 -352 132 -358 0 -8 -85 -11 -300 -11
-287 0 -299 1 -292 19 36 93 318 708 323 703 3 -4 65 -163 137 -353z m3859
-355 c-2 -2 -193 -3 -424 -2 l-420 3 214 358 214 358 210 -356 c116 -197 208
-359 206 -361z m752 354 c116 -191 211 -350 211 -353 0 -3 -194 -5 -431 -5
-237 0 -429 4 -427 8 17 41 425 709 430 704 3 -4 101 -163 217 -354z m851 -2
c115 -186 209 -340 208 -341 -6 -5 -758 -12 -758 -8 0 19 325 702 331 696 4
-4 103 -161 219 -347z m-6044 -239 c21 -64 35 -119 32 -122 -3 -3 -118 -4
-256 -3 l-251 3 137 325 c76 179 142 334 146 345 8 19 68 -150 192 -548z
m7873 233 c51 -168 94 -313 97 -322 5 -17 -7 -18 -159 -18 l-163 0 60 334 c34
184 64 329 67 323 4 -7 48 -149 98 -317z m-8494 -17 c30 -171 55 -318 55 -327
0 -14 -19 -16 -161 -16 -131 0 -160 3 -157 14 8 35 203 645 205 642 1 -1 27
-142 58 -313z m-371 -41 l52 -297 -69 -3 c-38 -2 -71 -1 -73 0 -1 2 3 123 11
268 8 146 15 288 16 315 2 65 2 64 63 -283z m41 -429 c-7 -38 -32 -179 -55
-315 -24 -137 -44 -247 -46 -245 -1 1 -7 115 -13 252 -6 138 -14 278 -17 313
l-6 62 75 0 75 0 -13 -67z m385 50 c0 -20 -109 -635 -113 -640 -3 -2 -196 605
-205 644 -3 10 27 13 157 13 147 0 161 -2 161 -17z m600 5 c0 -26 -214 -678
-220 -671 -5 6 -260 604 -288 675 -2 4 111 8 252 8 190 0 256 -3 256 -12z
m680 0 c0 -6 -56 -158 -124 -337 -69 -179 -130 -339 -136 -356 -11 -28 -19
-12 -166 315 -86 190 -160 355 -165 368 l-9 22 300 0 c222 0 300 -3 300 -12z
m865 -7 c0 -12 -378 -731 -384 -731 -7 1 -354 712 -359 735 -3 14 39 15 370
10 205 -3 373 -9 373 -14z m928 -80 c-223 -407 -369 -671 -373 -670 -6 0 -454
736 -458 752 -2 9 98 11 438 9 l441 -2 -48 -89z m919 -43 c-38 -73 -127 -245
-197 -381 l-127 -249 -212 354 c-117 194 -220 365 -230 381 l-18 27 427 0 426
0 -69 -132z m1018 127 c0 -2 -94 -165 -209 -360 l-209 -356 -201 336 c-111
185 -209 347 -217 361 l-16 24 426 0 c234 0 426 -2 426 -5z m960 0 c0 -5 -377
-629 -418 -693 -14 -22 -22 -10 -228 333 -118 196 -214 358 -214 361 0 2 194
4 430 4 237 0 430 -2 430 -5z m843 -8 c7 -2 -401 -669 -422 -690 -6 -6 -331
676 -331 695 0 5 732 -1 753 -5z m-5280 -383 c103 -213 187 -388 185 -389 -5
-4 -658 32 -662 36 -5 5 277 739 284 739 3 0 90 -174 193 -386z m6003 370 c-7
-19 -377 -697 -385 -706 -3 -4 -55 151 -115 345 -60 194 -111 358 -113 365 -4
9 61 12 307 12 278 0 311 -2 306 -16z m589 -1 c-37 -99 -291 -703 -295 -703
-3 0 -52 157 -109 348 -57 191 -106 353 -109 360 -3 9 53 12 258 12 246 0 262
-1 255 -17z m411 0 c-116 -391 -190 -630 -195 -636 -4 -4 -34 141 -67 323
l-60 330 163 0 c152 0 164 -1 159 -17z m200 -20 c-3 -21 -15 -177 -26 -348
-12 -170 -23 -320 -26 -332 -3 -14 -12 -23 -23 -23 -23 0 -25 22 -41 360 -5
118 -13 252 -16 298 l-6 82 72 0 72 0 -6 -37z m-4404 -336 c119 -199 215 -363
214 -364 -4 -5 -819 -33 -824 -29 -1 2 56 118 128 257 72 140 159 309 193 377
34 67 64 122 67 122 3 -1 102 -164 222 -363z m-1952 48 c101 -165 205 -336
232 -380 l49 -80 -215 -3 c-118 -1 -313 -1 -434 0 l-218 3 200 382 c110 210
201 381 202 380 0 -1 83 -137 184 -302z m1015 -69 c119 -198 219 -366 222
-373 4 -11 -76 -13 -431 -13 -240 0 -436 3 -436 6 0 17 414 753 421 747 4 -4
105 -170 224 -367z m1883 20 c116 -195 212 -357 212 -360 0 -3 -191 -6 -425
-6 -234 0 -425 3 -425 6 0 9 414 714 420 714 3 0 101 -159 218 -354z m-5074
-5 c80 -190 144 -346 142 -348 -2 -2 -97 -2 -212 -1 l-210 3 62 345 c71 398
63 354 68 349 2 -2 70 -159 150 -348z m605 -12 c83 -185 151 -340 151 -344 0
-5 -530 4 -537 9 -1 1 48 158 110 349 61 191 114 342 118 335 4 -7 75 -164
158 -349z m5363 29 c82 -178 156 -338 163 -356 l15 -33 -383 7 c-210 3 -383 7
-384 8 0 0 47 80 106 176 59 96 155 255 215 353 59 98 110 176 113 173 3 -2
72 -150 155 -328z m798 30 c52 -167 104 -336 116 -376 l22 -72 -76 5 c-42 3
-193 12 -336 20 -142 8 -260 16 -263 19 -5 5 429 706 437 706 4 0 48 -136 100
-302z m1270 -84 c33 -182 60 -339 60 -348 0 -14 -23 -16 -219 -16 l-219 0 152
364 c102 247 153 359 158 348 4 -9 34 -166 68 -348z m-555 -7 c59 -197 105
-360 103 -363 -5 -5 -591 15 -596 21 -2 2 80 158 183 347 217 397 196 360 200
356 1 -2 51 -164 110 -361z m-7921 2 c54 -171 96 -312 94 -313 -7 -6 -222 -36
-226 -31 -4 4 -28 214 -35 300 -2 28 56 355 63 355 3 0 50 -140 104 -311z
m8800 166 c18 -350 26 -528 24 -531 -4 -3 -221 15 -223 19 -3 3 188 637 191
634 1 -1 4 -56 8 -122z m-8991 -457 c4 -62 3 -68 -14 -68 -11 0 -19 6 -19 13
0 18 22 128 25 125 1 -2 5 -33 8 -70z m308 -70 c2 -15 56 -644 55 -645 -3 -4
-294 601 -291 605 2 2 131 25 228 41 4 0 7 0 8 -1z m469 -10 c1 -28 -74 -573
-79 -580 -5 -6 -62 95 -279 494 l-54 98 206 0 c158 0 206 -3 206 -12z m561 2
l56 0 -97 -282 c-53 -156 -99 -289 -102 -297 -4 -13 -328 565 -328 584 0 5 93
5 208 2 114 -4 232 -7 263 -7z m474 -20 c121 -6 248 -13 281 -16 l61 -5 -145
-340 c-80 -187 -149 -336 -153 -332 -11 12 -359 694 -359 703 0 5 21 7 48 5
26 -3 146 -9 267 -15z m3126 -67 c-238 -446 -335 -623 -342 -623 -4 0 -110
152 -234 338 l-226 337 53 5 c29 3 114 7 188 9 74 2 214 7 310 11 96 3 203 7
236 8 l62 2 -47 -87z m896 -20 c-40 -60 -138 -201 -216 -315 -78 -115 -145
-208 -149 -208 -4 1 -37 49 -73 108 -36 59 -125 200 -197 315 l-132 207 421 0
420 0 -74 -107z m921 92 c6 -6 -419 -600 -426 -596 -7 4 -312 598 -312 608 0
6 732 -6 738 -12z m457 -6 c132 -6 252 -14 266 -18 27 -6 23 -12 -206 -355
l-234 -348 -10 38 c-35 133 -171 686 -171 695 0 8 17 10 58 6 31 -4 165 -12
297 -18z m1902 5 c3 -9 -11 -95 -33 -191 -21 -96 -40 -170 -42 -164 -2 5 6 87
17 180 12 94 21 175 21 181 0 16 30 12 37 -6z m-2988 -317 c90 -175 161 -320
159 -322 -7 -6 -768 -16 -768 -10 0 7 443 656 446 652 0 -1 74 -145 163 -320z
m-4587 123 c53 -102 139 -269 192 -372 58 -112 92 -188 84 -188 -27 0 -573
112 -581 119 -4 4 40 148 99 320 59 171 108 310 109 309 1 -2 45 -86 97 -188z
m6556 164 c57 -3 102 -9 100 -13 -14 -33 -443 -722 -445 -715 -8 24 -143 711
-143 727 0 17 10 18 193 12 105 -3 238 -8 295 -11z m826 6 c23 0 47 -4 54 -8
9 -7 -12 -72 -90 -270 -57 -144 -105 -262 -108 -262 -3 0 -2 91 1 202 4 112 7
236 8 277 l1 74 46 -7 c26 -3 65 -6 88 -6z m-8882 -170 c15 -91 27 -171 25
-178 -1 -8 -23 64 -49 159 -26 95 -44 177 -41 181 2 5 12 8 21 6 13 -2 22 -38
44 -168z m951 -121 c86 -157 159 -293 163 -302 6 -16 -11 -17 -200 -17 -188 0
-206 1 -206 17 0 21 68 526 76 566 3 16 7 27 8 25 2 -2 73 -132 159 -289z
m3062 274 c-17 -46 -361 -763 -365 -763 -5 0 -491 753 -498 772 -2 4 193 8
433 8 412 0 437 -1 430 -17z m1184 -303 c109 -173 197 -317 195 -319 -5 -5
-784 -67 -784 -62 0 15 375 701 381 699 5 -2 98 -145 208 -318z m1665 -44 c48
-192 85 -351 82 -353 -4 -4 -608 87 -614 92 -2 2 95 143 215 313 120 171 221
307 224 304 3 -4 45 -164 93 -356z m1805 357 c-1 -14 -368 -738 -369 -728 0 6
-18 169 -39 364 -22 195 -38 358 -35 363 6 10 444 11 443 1z m-5629 -9 c0 -4
-35 -74 -79 -158 -43 -83 -129 -249 -191 -369 -98 -192 -114 -216 -124 -200
-7 10 -104 173 -216 363 -112 190 -207 351 -213 358 -7 9 75 12 407 12 229 0
416 -3 416 -6z m312 -399 c134 -209 248 -386 252 -394 7 -11 -26 -12 -205 -7
-118 3 -322 9 -454 12 -132 3 -241 7 -243 9 -1 1 86 176 195 388 109 212 201
383 205 379 4 -4 116 -178 250 -387z m4243 14 c41 -205 75 -378 75 -384 0 -8
-99 0 -307 23 -170 19 -310 35 -311 37 -2 2 101 161 230 353 128 193 234 349
236 348 1 -2 36 -171 77 -377z m-5202 -14 c113 -192 208 -357 212 -365 5 -14
-41 -12 -365 16 -204 17 -372 33 -374 35 -4 3 202 492 284 678 14 30 -12 68
243 -364z m1911 26 c121 -180 213 -327 207 -330 -12 -8 -785 -85 -799 -80 -6
2 66 164 160 359 93 195 174 366 179 379 8 21 12 22 23 10 7 -8 111 -160 230
-338z m-3904 204 c24 -44 87 -159 140 -257 l98 -176 -119 -53 c-66 -28 -122
-49 -125 -46 -3 3 -16 128 -29 279 -13 150 -26 295 -29 322 -6 59 -4 56 64
-69z m8295 -12 c-2 -71 -7 -209 -10 -308 -4 -99 -7 -180 -8 -181 -5 -5 -332
-101 -335 -99 -3 3 351 715 356 715 1 0 0 -57 -3 -127z m-476 -249 c21 -192
38 -350 36 -352 -1 -1 -117 -1 -257 0 l-256 3 216 352 c119 194 217 351 219
349 2 -1 21 -160 42 -352z m722 58 c-16 -134 -31 -246 -34 -248 -6 -6 -148
-27 -152 -22 -1 2 45 124 104 271 58 148 107 263 109 255 1 -7 -11 -122 -27
-256z m-8719 -116 c60 -126 106 -232 101 -236 -4 -4 -43 -21 -86 -38 -54 -22
-79 -27 -82 -19 -2 7 -24 143 -50 302 -26 160 -49 301 -51 315 -7 35 41 -56
168 -324z m8775 132 c-3 -8 -6 -5 -6 6 -1 11 2 17 5 13 3 -3 4 -12 1 -19z
m-7863 -305 c-2 -10 -15 -110 -29 -223 -15 -113 -30 -213 -33 -223 -7 -17 -74
69 -305 395 l-48 68 209 0 c195 0 210 -1 206 -17z m-432 -275 c32 -155 56
-283 55 -285 -3 -2 -250 330 -334 447 -11 15 0 23 100 68 62 28 114 51 117 51
3 1 31 -126 62 -281z m5528 279 c0 -2 -105 -106 -234 -230 l-234 -226 -136
222 -137 222 158 5 c236 7 583 12 583 7z m703 -100 c5 -1 -102 -128 -238 -282
-137 -153 -250 -274 -252 -269 -5 18 -133 636 -133 643 0 6 590 -81 623 -92z
m-5413 42 c140 -28 257 -52 258 -54 4 -4 -137 -504 -147 -522 -4 -7 -87 122
-198 307 -106 176 -186 320 -180 320 7 0 127 -23 267 -51z m-131 -293 c106
-175 186 -316 179 -314 -7 3 -105 29 -218 58 -113 30 -211 58 -219 64 -16 13
-13 50 25 330 15 108 30 193 35 189 4 -4 93 -151 198 -327z m3835 13 c-86
-167 -159 -307 -163 -312 -6 -6 -436 534 -443 558 -3 11 755 75 760 64 1 -3
-68 -143 -154 -310z m3656 305 c0 -9 -253 -524 -256 -521 -2 2 19 97 46 213
28 115 55 230 61 256 10 42 14 47 42 51 53 6 107 7 107 1z m-3301 -220 c73
-119 129 -220 125 -224 -5 -4 -135 -47 -289 -96 -154 -48 -286 -89 -293 -92
-7 -2 37 92 98 209 61 118 134 260 163 316 28 57 55 103 58 103 3 0 65 -97
138 -216z m754 -111 c36 -174 64 -319 62 -321 -6 -6 -585 189 -585 197 -1 7
442 440 451 441 3 0 35 -143 72 -317z m-5420 22 c76 -104 138 -194 139 -200 1
-10 -28 -28 -153 -98 l-66 -37 -57 288 c-32 158 -60 296 -63 307 -6 24 20 -11
200 -260z m7754 268 c-23 -43 -420 -683 -422 -681 -5 6 61 568 68 574 5 5 333
110 355 113 2 1 1 -2 -1 -6z m-1322 -63 c153 -17 281 -33 283 -35 3 -2 -114
-142 -258 -310 -144 -168 -264 -304 -266 -302 -4 4 -84 640 -84 668 0 15 5 18
23 14 12 -2 148 -19 302 -35z m-4731 -41 c6 -6 -255 -619 -263 -619 -5 1 -471
662 -479 680 -3 7 735 -53 742 -61z m1886 64 c0 -10 -311 -675 -320 -686 -6
-7 -454 575 -466 606 -4 11 64 20 343 49 369 37 443 43 443 31z m-4136 -12 c8
-13 128 -562 124 -566 -5 -5 -313 486 -313 498 0 10 148 75 172 76 6 1 14 -3
17 -8z m4430 -278 c124 -159 222 -289 218 -290 -27 -8 -766 -113 -769 -109 -7
6 310 685 319 686 4 0 108 -129 232 -287z m-2725 -83 c121 -173 219 -316 217
-317 -3 -4 -609 106 -613 111 -1 1 32 124 75 274 59 209 80 268 89 259 6 -7
111 -154 232 -327z m4946 -10 c36 -288 39 -330 26 -330 -9 1 -141 27 -294 58
l-279 58 247 277 c136 153 250 275 253 272 3 -3 24 -154 47 -335z m-3625 304
c113 -3 206 -7 207 -8 5 -4 -341 -636 -347 -636 -3 0 -107 122 -231 272 -123
150 -246 298 -273 331 l-49 59 244 -6 c134 -4 336 -9 449 -12z m4850 11 c0 -7
-502 -636 -505 -633 -2 2 -6 146 -10 321 l-7 317 261 0 c144 0 261 -2 261 -5z
m-4346 -339 c124 -165 225 -301 223 -302 -5 -5 -149 -14 -402 -24 -143 -5
-295 -12 -339 -15 l-78 -6 42 78 c219 408 316 581 321 575 4 -4 109 -142 233
-306z m4697 60 c-32 -136 -62 -251 -67 -256 -12 -10 -236 -92 -241 -87 -2 2
79 137 179 300 101 162 184 295 185 293 1 -1 -24 -113 -56 -250z m-5651 -86
c134 -162 250 -303 258 -313 8 -9 13 -19 11 -20 -6 -5 -798 49 -804 55 -2 2
47 126 111 274 64 148 122 284 130 303 18 43 -15 76 294 -299z m4736 -9 c7
-324 6 -333 -12 -328 -10 3 -131 15 -269 28 -137 12 -252 24 -253 25 -2 1 114
140 259 308 144 168 264 305 265 303 2 -1 6 -153 10 -336z m-7062 95 c91 -124
166 -229 166 -234 0 -9 -200 -135 -205 -130 -2 2 -31 129 -64 283 -34 154 -64
286 -66 293 -2 6 -3 12 0 12 2 0 78 -101 169 -224z m7601 -93 c-17 -156 -34
-285 -36 -288 -5 -5 -402 -24 -407 -20 -2 2 103 137 233 300 131 163 239 295
240 293 1 -2 -12 -130 -30 -285z m-7801 -123 c118 -189 122 -200 66 -200 -23
0 -32 16 -105 182 -93 212 -100 227 -87 213 6 -5 62 -93 126 -195z m5302 123
c-2 -10 -17 -138 -32 -286 -15 -147 -31 -266 -34 -265 -15 7 -509 384 -510
389 0 7 538 177 563 178 13 1 17 -4 13 -16z m372 -87 l274 -92 -324 -181
c-177 -100 -325 -180 -326 -178 -4 4 46 497 54 533 4 19 9 22 27 16 12 -4 145
-48 295 -98z m-4906 -169 c53 -116 100 -220 104 -231 6 -16 -388 303 -401 325
-5 6 180 119 195 119 3 0 49 -96 102 -213z m206 143 c111 -29 202 -58 202 -64
0 -19 -179 -401 -189 -404 -6 -2 -21 18 -34 45 -38 74 -217 470 -217 478 0 4
8 5 18 3 9 -3 108 -29 220 -58z m4205 -459 c16 -16 -7 -24 -354 -135 -204 -64
-373 -115 -376 -112 -3 3 41 135 97 293 56 158 107 300 112 315 l10 27 246
-186 c136 -102 255 -193 265 -202z m-4674 164 c54 -116 110 -237 125 -270 l27
-60 -28 26 c-15 14 -118 106 -228 205 -110 98 -200 183 -200 188 0 12 186 127
198 123 5 -1 53 -97 106 -212z m896 -60 c93 -148 177 -284 187 -301 l19 -32
-283 93 c-206 67 -282 96 -280 106 4 19 184 410 187 407 2 -2 78 -124 170
-273z m3104 -26 c-60 -166 -110 -303 -113 -306 -2 -2 -129 107 -282 243 -172
154 -272 250 -263 253 20 7 698 108 735 110 l31 1 -108 -301z m-2890 237 c161
-30 294 -56 295 -58 2 -2 -53 -108 -122 -236 -98 -181 -129 -229 -138 -220 -6
7 -82 128 -169 268 -87 140 -165 265 -173 278 -12 18 -12 22 0 22 7 0 146 -24
307 -54z m4705 -6 c159 -33 290 -61 291 -62 2 -2 -146 -110 -328 -240 -183
-130 -333 -235 -335 -233 -4 4 66 562 73 583 2 6 6 12 7 12 2 0 133 -27 292
-60z m-360 -17 c-3 -27 -20 -160 -38 -298 -17 -137 -36 -250 -41 -250 -15 0
-565 229 -565 235 1 6 632 359 643 360 4 0 5 -21 1 -47z m1965 -193 c-89 -132
-164 -239 -165 -237 -6 5 25 269 38 324 l11 53 106 40 c58 22 115 45 126 50
11 5 26 9 33 9 7 1 -60 -107 -149 -239z m-7215 44 c116 -97 212 -179 213 -183
3 -8 -174 -197 -179 -191 -11 13 -256 550 -251 550 3 0 100 -79 217 -176z
m1691 76 c187 -12 357 -24 377 -28 l37 -7 -149 -274 c-82 -150 -151 -275 -153
-277 -4 -4 -500 589 -505 605 -1 4 10 6 25 5 16 -2 181 -13 368 -24z m1275
-112 c-146 -354 -196 -470 -201 -472 -3 0 -128 127 -278 284 -243 254 -269
285 -249 291 13 3 172 11 353 18 182 7 335 14 340 16 6 2 29 4 52 4 l42 1 -59
-142z m3344 108 l220 -21 -312 -278 c-172 -153 -312 -271 -312 -263 0 15 66
512 75 562 5 31 6 31 58 26 28 -2 151 -14 271 -26z m-2948 -232 c151 -136 273
-248 271 -250 -7 -7 -771 -115 -793 -112 -19 3 -12 26 105 306 69 166 129 302
134 302 4 0 132 -111 283 -246z m3674 238 c0 -12 -530 -616 -530 -605 -2 33
96 571 105 581 8 8 62 15 171 20 87 4 180 8 207 10 26 2 47 -1 47 -6z m-5526
-322 c129 -156 233 -286 231 -289 -9 -9 -745 144 -743 154 2 6 57 111 123 233
113 211 120 221 136 205 10 -10 123 -146 253 -303z m-1973 163 c52 -81 102
-159 112 -175 11 -15 17 -28 14 -28 -3 0 -71 75 -152 166 -151 171 -157 183
-94 184 23 0 38 -19 120 -147z m6351 -163 c-37 -274 -38 -275 -62 -277 -30 -3
-537 99 -542 109 -2 4 141 110 317 235 176 126 321 224 322 219 1 -6 -14 -135
-35 -286z m-3442 -10 l272 -285 -215 -3 c-119 -1 -315 -1 -436 0 l-221 3 157
288 c86 158 160 286 164 285 4 -2 130 -131 279 -288z m4049 -27 c-23 -142 -45
-261 -48 -265 -3 -3 -80 -2 -171 2 -91 5 -198 10 -238 11 -40 1 -71 6 -70 11
5 13 562 508 566 503 2 -2 -15 -120 -39 -262z m510 77 c-11 -96 -23 -178 -27
-181 -8 -8 -365 -119 -369 -115 -2 2 90 109 204 239 114 130 208 235 210 234
1 -2 -7 -81 -18 -177z m-7035 -192 l31 -26 -33 -64 c-50 -98 -47 -96 -72 -67
-11 13 -25 33 -29 44 -5 11 -68 111 -140 223 -72 111 -136 212 -142 224 -6 12
71 -53 171 -143 100 -90 197 -176 214 -191z m4471 -123 c-36 -165 -67 -300
-68 -301 -4 -4 -607 370 -607 376 0 8 735 237 738 230 1 -3 -27 -141 -63 -305z
m513 152 c94 -39 172 -74 172 -77 0 -6 -691 -372 -695 -368 -3 3 121 574 129
595 4 8 38 -2 113 -33 59 -25 186 -78 281 -117z m-4656 131 c21 -17 363 -532
346 -522 -59 35 -545 339 -552 345 -12 10 152 189 173 189 10 0 24 -6 33 -12z
m483 -149 c72 -23 131 -43 133 -44 5 -4 -162 -375 -168 -375 -3 0 -87 124
-187 274 l-181 274 136 -44 c75 -24 196 -63 267 -85z m615 -134 c184 -36 342
-69 351 -73 13 -6 -2 -45 -96 -236 l-111 -229 -257 302 c-141 165 -257 303
-257 307 0 3 8 3 18 0 9 -3 168 -34 352 -71z m4128 1 c145 -30 265 -56 267
-58 2 -2 -159 -112 -358 -245 -199 -133 -363 -236 -365 -230 -4 18 128 570
140 584 6 7 20 11 32 8 11 -3 139 -30 284 -59z m-5277 -204 c103 -130 185
-238 184 -240 -3 -3 -420 322 -453 352 -10 10 -5 25 25 79 26 47 40 64 47 57
6 -6 95 -118 197 -248z m961 -23 c129 -151 238 -280 241 -286 8 -13 28 -18
-358 102 -154 48 -284 91 -288 95 -9 8 152 372 163 368 4 -2 113 -127 242
-279z m2442 259 c-30 -96 -190 -546 -195 -549 -6 -3 -232 169 -522 398 l-78
62 43 6 c321 48 709 103 731 104 25 1 28 -2 21 -21z m395 -193 c143 -88 260
-163 261 -166 0 -3 -170 -49 -377 -102 -208 -54 -388 -100 -400 -103 -24 -7
-23 -5 147 484 l33 92 38 -22 c21 -13 155 -95 298 -183z m2840 201 c-35 -31
-519 -445 -531 -454 -10 -8 18 61 60 152 46 97 88 173 103 184 30 24 394 141
368 118z m-1813 -315 c-35 -150 -66 -274 -68 -277 -6 -5 -548 199 -548 206 0
11 674 361 678 352 1 -5 -26 -131 -62 -281z m-4626 99 c135 -84 251 -157 257
-164 10 -9 0 -33 -45 -111 -31 -55 -62 -100 -67 -99 -11 0 -434 534 -434 548
-1 4 9 2 22 -6 12 -8 132 -84 267 -168z m5750 104 c96 -4 183 -10 193 -13 14
-5 -57 -61 -295 -233 -172 -124 -314 -223 -316 -218 -6 15 100 465 111 473 7
4 39 5 72 3 33 -3 139 -9 235 -12z m-3470 -11 c0 -14 -245 -533 -251 -533 -7
0 -579 529 -579 536 0 2 187 4 415 4 228 0 415 -3 415 -7z m-588 -295 c236
-219 274 -258 251 -258 -62 2 -793 67 -798 72 -3 2 47 112 110 243 l116 237
22 -18 c11 -11 146 -135 299 -276z m776 210 c316 -245 482 -378 470 -378 -7
-1 -202 -23 -433 -49 -231 -26 -421 -47 -423 -46 -8 7 255 554 266 555 8 0 62
-37 120 -82z m2849 -188 l-53 -235 -164 0 c-91 0 -228 2 -304 5 l-139 5 354
236 c195 130 355 233 356 230 1 -3 -21 -112 -50 -241z m555 5 c-80 -171 -93
-191 -131 -218 l-43 -30 -161 7 c-89 4 -163 8 -164 10 -1 1 129 97 290 213
160 116 293 210 295 209 1 -2 -38 -88 -86 -191z m336 90 c-60 -81 -67 -88
-148 -126 -47 -22 -78 -34 -70 -26 21 21 274 237 278 237 1 0 -26 -38 -60 -85z
m-6096 -354 c4 -3 -1 -17 -11 -30 l-19 -25 -116 108 c-63 60 -148 145 -188
189 l-73 81 200 -158 c110 -87 203 -161 207 -165z m3661 -22 c-59 -140 -108
-255 -109 -257 -3 -5 -534 311 -534 318 0 5 743 199 748 195 1 -1 -46 -116
-105 -256z m707 51 c-1 -5 -753 -301 -756 -297 -1 2 145 348 193 459 l21 46
271 -101 c149 -56 271 -104 271 -107z m-3944 -15 l219 -215 -65 24 c-202 74
-482 190 -487 201 -4 13 96 205 108 205 3 0 104 -97 225 -215z m199 110 c171
-53 314 -100 318 -105 8 -7 -127 -290 -139 -290 -7 0 -123 110 -353 333 -95
93 -165 167 -155 164 11 -3 159 -49 329 -102z m2228 -137 c-10 -18 -70 -124
-133 -236 -63 -111 -119 -201 -125 -198 -31 12 -568 376 -555 377 8 0 182 20
385 44 204 23 387 43 408 44 l39 1 -19 -32z m376 -136 c146 -86 258 -158 250
-160 -8 -1 -194 -35 -414 -76 -220 -41 -401 -73 -402 -72 -2 2 226 411 254
454 9 15 20 21 31 17 8 -3 135 -76 281 -163z m-1956 -58 c144 -108 268 -202
276 -209 11 -11 0 -11 -55 0 -38 7 -195 36 -349 65 -154 29 -282 54 -285 57
-6 6 133 283 142 283 5 0 126 -88 271 -196z m240 162 c213 -18 389 -35 391
-37 3 -2 -32 -63 -77 -135 -45 -72 -97 -154 -114 -182 l-33 -53 -282 212
c-156 116 -287 216 -292 220 -13 12 -35 13 407 -25z m2780 -190 c-55 -116
-104 -206 -111 -206 -14 0 -513 128 -518 133 -3 3 720 286 724 282 2 -2 -41
-96 -95 -209z m762 204 c29 0 -56 -45 -350 -185 -49 -24 -170 -81 -267 -128
-98 -48 -178 -84 -178 -82 0 2 28 62 61 132 34 70 77 161 96 202 l34 74 287
-6 c158 -4 300 -7 317 -7z m372 4 l82 -7 -267 -172 c-147 -94 -273 -175 -279
-179 -15 -8 181 308 210 342 18 19 30 22 96 22 42 0 113 -3 158 -6z m-5129
-173 c117 -89 212 -164 212 -167 0 -2 -53 22 -117 54 -65 32 -178 87 -250 122
-87 42 -133 69 -133 79 0 30 40 83 59 78 9 -2 113 -77 229 -166z m1961 -86
l272 -180 -201 -3 c-110 -1 -290 -1 -400 0 l-199 3 116 187 c78 127 120 185
128 180 7 -4 134 -88 284 -187z m2719 33 c-56 -90 -110 -178 -121 -197 l-20
-33 -81 6 c-45 3 -155 9 -246 12 -153 6 -191 11 -165 20 6 2 172 83 370 179
198 96 361 174 362 175 1 0 -43 -73 -99 -162z m525 148 c-4 -7 -44 -52 -88
-99 l-80 -86 -125 -45 c-69 -24 -134 -48 -145 -52 -11 -4 84 61 210 144 127
83 231 151 233 151 2 1 -1 -5 -5 -13z m-4968 -110 c121 -48 226 -92 233 -100
11 -11 9 -23 -17 -75 -17 -33 -34 -61 -37 -61 -4 0 -377 281 -434 328 -19 16
-21 16 255 -92z m2983 -144 c-1 -4 -50 -83 -107 -175 -101 -163 -104 -167
-137 -167 -34 0 -534 187 -534 199 0 5 722 145 768 150 8 0 12 -3 10 -7z m321
-48 c119 -30 234 -60 256 -66 39 -10 27 -14 -334 -114 -206 -58 -376 -102
-379 -100 -2 3 42 80 98 171 78 124 108 165 123 165 11 0 117 -25 236 -56z
m-2533 -251 c-6 -6 -440 110 -493 133 l-62 26 34 69 35 68 244 -147 c135 -81
244 -148 242 -149z m-27 232 c190 -36 350 -67 354 -68 10 -3 -131 -207 -143
-207 -5 0 -137 77 -292 170 -155 94 -279 170 -274 170 5 0 164 -29 355 -65z
m3271 -91 l135 -7 -339 -113 c-187 -63 -341 -113 -342 -111 -1 1 46 57 105
125 l106 123 100 -5 c55 -3 161 -9 235 -12z m-2598 -131 c282 -136 273 -131
267 -137 -6 -6 -659 51 -666 58 -6 5 125 206 134 206 1 0 121 -57 265 -127z
m506 -3 c-55 -71 -104 -130 -108 -130 -7 0 -192 88 -459 219 l-85 41 377 0
377 0 -102 -130z m413 39 c129 -50 240 -94 248 -98 16 -10 11 -10 -381 -52
-169 -18 -310 -30 -313 -27 -7 7 193 268 205 268 4 0 113 -41 241 -91z m1217
42 c-104 -130 -234 -269 -242 -261 -6 6 -21 10 -35 10 -28 0 -341 79 -353 90
-6 4 581 175 650 189 2 1 -7 -12 -20 -28z m561 -25 c-2 -2 -60 -36 -129 -76
l-124 -72 -156 -24 c-85 -13 -171 -26 -190 -29 -19 -2 105 42 275 99 293 98
334 111 324 102z m-3325 -122 c114 -28 141 -43 118 -66 -8 -8 -46 4 -134 42
-107 45 -165 74 -118 58 8 -3 68 -18 134 -34z m2315 -120 c15 -6 -474 -86
-493 -81 -10 3 117 122 157 147 28 17 32 17 175 -21 80 -21 153 -41 161 -45z
m-481 8 c-40 -38 -90 -83 -110 -101 l-37 -32 -238 61 c-130 33 -238 62 -240
64 -4 3 613 73 665 75 32 1 32 1 -40 -67z m-1393 -18 c99 -31 182 -59 185 -61
11 -11 -103 10 -273 52 -98 24 -181 45 -183 48 -3 2 -2 11 1 19 8 20 37 14
270 -58z m315 20 c113 -10 209 -21 214 -25 5 -4 -3 -27 -17 -52 l-26 -44 -203
63 c-112 36 -207 66 -213 68 -21 9 46 6 245 -10z m505 -78 c116 -30 201 -55
190 -55 -152 -9 -477 -12 -474 -5 12 29 63 114 68 114 3 0 101 -25 216 -54z
m1025 -21 c-86 -30 -107 -34 -228 -37 -72 -2 -132 -1 -132 2 0 6 388 67 430
68 14 1 -18 -14 -70 -33z m-377 -42 c-7 -2 -19 -2 -25 0 -7 3 -2 5 12 5 14 0
19 -2 13 -5z"/>
</g>
</svg>
